# xmcd CD database file
#
# Track frame offsets:
#	150
#	11872
#	24995
#	48563
#	56876
#	70815
#	88277
#	108636
#	121646
#	145799
#	164205
#	174343
#
# Disc length: 2708 seconds
#
# Revision: 0
# Processed by: cddbd v1.5.2PL0 Copyright (c) Steve Scherf et al.
# Submitted via: CDex 1.51
#
DISCID=aa0a920c
DTITLE=Jack Marks - Blues Like These
DYEAR=2013
DGENRE=Salsa
TTITLE0=Blues Like These
TTITLE1=Plant Me a Garden
TTITLE2=Song For Me
TTITLE3=Just the Gun and I
TTITLE4=Maggie's Hardware Store
TTITLE5=Milk Thistle
TTITLE6=Now That We've Met
TTITLE7=How the Other Half Lives
TTITLE8=This is a Stickup
TTITLE9=Stray Dog
TTITLE10=My Good Gal
TTITLE11=Blues I Have
EXTD=YEAR: 2013
EXTT0=
EXTT1=
EXTT2=
EXTT3=
EXTT4=
EXTT5=
EXTT6=
EXTT7=
EXTT8=
EXTT9=
EXTT10=
EXTT11=
PLAYORDER=
